<svg xmlns="http://www.w3.org/2000/svg" width="59" height="59"><path fill="#0b8bee" d="M52 27.5c0-.5-.4-.9-.9-.9h-.2c-7.5 1.6-15.4 2.2-23.4 1.8-2.5-.1-4.9 0-7.3.2h-.6c-1.9.3-3.7 1.1-5.2 2.5-1.2 1.3-2.1 2.9-2.5 4.6-.5 2.1-.1 4.2.7 6.1.9 1.9 2.3 3.5 4 4.7 1.8 1.2 3.9 2.2 6 2.8 1.3.4 2.5.7 4 .9 0-.6.8-1.4.8-1.8s-.3-.8-.7-.8c-2.2.1-3.8 0-5.9-.7-2.1-.8-4-2.1-5.5-3.8q-1.2-1.2-1.8-2.7c-.3-1-.5-2.1-.4-3.2.2-3.6 3-6.7 6.6-7.2 2-.3 4.1.2 5.7 1.4.9.6 1.6 1.4 2.2 2.3.6 1 1.1 2.1 1.4 3.3.8 2.3.8 4.9.5 7.4q-.15 1.5-.6 3c-.2.6-.4 1.2-.6 1.7-.1.1-.1.2-.1.4 0 .4.4.8.8.8h.2c5.6 0 10.7-2 14.7-5.3q.3-.3.3-.6c0-.2-.1-.3-.2-.5-1.5-2.5-4.7-6.2-4.7-6.2s3.7 3.2 6.3 4.7c.1 0 .3.1.5.1s.4-.1.6-.2v-.1c3.3-3.9 5.3-9 5.3-14.5z"/><path fill="#ffcd00" d="M11.4 38.3c-.9-2-1.5-4.1-1.6-6.3v-1c0-.4-.4-.7-.8-.7s-1.3.7-1.9.7c.7 4.8 2.8 9.3 6.2 12.8 1.6 1.7 3.7 3 6 3.6 2 .6 4.1.3 5.9-.6q1.35-.6 2.4-1.8c.7-.7 1.2-1.7 1.7-2.6.6-.9 1-1.9 1.5-2.9.4-1.1.8-2.2 1.3-3.3 1.8-4 4.4-7.7 7.9-10.4 1.8-1.4 3.6-2.5 5.6-3.4 1-.4 2.1-.8 3.2-1.1.5-.2 1-.3 1.5-.4.5-.2.7-.7.6-1.1-1.3-3.3-3.4-6.2-6-8.5 0-.1-.1-.1-.1-.1-.1-.1-.3-.2-.5-.2q-.45 0-.6.3c-4.2 2.9-7.3 7.7-7.3 7.7s1.6-4.1 5.1-9.2c.1-.2.1-.3.1-.5 0-.3-.1-.5-.3-.7h-.1c-2.2-1.3-4.6-2.2-7-2.7-1.8-.3-3.6-.5-5.5-.4-.5 0-.8.4-.8.9-.3 5.9.9 16.1.9 16.1s-2.1-10-4.1-15.6c-.2-.4-.5-.6-.8-.6h-.2c-.2 0-.3.1-.5.1-3.4 1-6.6 2.9-9.2 5.3-.4.4-.8.9-1.3 1.3-.1.2-.2.4-.2.6s.1.5.2.6c4.5 3.4 7.8 7.3 7.8 7.3s-4.2-3.1-9.3-5.1c-.1-.1-.2-.1-.4-.1-.3 0-.5.1-.7.3q-1.05 1.95-1.8 3.9c-.7 1.8-1 3.6-1.2 5.4-.1.4-.1.9.4 1.2.2.1.4.1.6.1.3-.1.6-.2.9-.2 1.2-.2 2.4-.3 3.7-.3 2.4 0 4.8.5 7.1 1.3 2.1.8 4 2 5.5 3.8 2.7 3.2 4.2 8.8 1 12.2-1.4 1.6-3.6 2.4-5.7 2.2-1.1-.1-2.1-.5-3-1s-1.7-1-2.5-1.7c-1.6-1.4-2.9-3.3-3.8-5.2"/></svg>